<svg width="389.941" height="70.02" viewBox="0 0 389.941 70.02" xmlns="http://www.w3.org/2000/svg"><g id="svgGroup" stroke-linecap="round" fill-rule="evenodd" font-size="9pt" stroke="#000" stroke-width="0.25mm" fill="#000" style="stroke:#000;stroke-width:0.25mm;fill:#000"><path d="M 0 0 L 70.02 0 L 70.02 50 L 20.02 50 L 20.02 20.02 L 50 20.02 L 50 30.029 L 30.029 30.029 L 30.029 40.039 L 60.01 40.039 L 60.01 10.01 L 10.01 10.01 L 10.01 60.01 L 70.02 60.01 L 70.02 70.02 L 0 70.02 L 0 0 Z M 329.932 60.01 L 379.932 60.01 L 379.932 0 L 389.941 0 L 389.941 70.02 L 319.922 70.02 L 319.922 20.02 L 369.922 20.02 L 369.922 50 L 339.941 50 L 339.941 40.039 L 359.961 40.039 L 359.961 30.029 L 329.932 30.029 L 329.932 60.01 Z M 169.971 60.01 L 219.971 60.01 L 219.971 0 L 229.98 0 L 229.98 70.02 L 159.961 70.02 L 159.961 0 L 169.971 0 L 169.971 60.01 Z M 239.941 70.02 L 239.941 0 L 309.961 0 L 309.961 10.01 L 249.951 10.01 L 249.951 70.02 L 239.941 70.02 Z M 110.01 20.02 L 110.01 50 L 89.99 50 L 89.99 70.02 L 79.98 70.02 L 79.98 40.039 L 100 40.039 L 100 30.029 L 79.98 30.029 L 79.98 0 L 89.99 0 L 89.99 20.02 L 110.01 20.02 Z M 120.02 20.02 L 139.99 20.02 L 139.99 0 L 150 0 L 150 30.029 L 129.98 30.029 L 129.98 40.039 L 150 40.039 L 150 70.02 L 139.99 70.02 L 139.99 50 L 120.02 50 L 120.02 20.02 Z M 209.961 0 L 209.961 50 L 179.98 50 L 179.98 0 L 189.99 0 L 189.99 40.039 L 200 40.039 L 200 0 L 209.961 0 Z M 259.961 70.02 L 259.961 20.02 L 309.961 20.02 L 309.961 30.029 L 269.971 30.029 L 269.971 70.02 L 259.961 70.02 Z M 279.98 70.02 L 279.98 40.039 L 309.961 40.039 L 309.961 50 L 289.941 50 L 289.941 60.01 L 309.961 60.01 L 309.961 70.02 L 279.98 70.02 Z M 319.922 10.01 L 319.922 0 L 369.922 0 L 369.922 10.01 L 319.922 10.01 Z M 100 10.01 L 100 0 L 129.98 0 L 129.98 10.01 L 100 10.01 Z M 129.98 60.01 L 129.98 70.02 L 100 70.02 L 100 60.01 L 129.98 60.01 Z" vector-effect="non-scaling-stroke"/></g></svg>